<svg xmlns="http://www.w3.org/2000/svg" width="26" height="26"><path d="M19.167 15.18a11.5 11.5 0 00-6.717-2.167v0a11.5 11.5 0 00-11.5 11.5 11.5 11.5 0 00.03.826h10.936" fill="none" stroke="#000" stroke-width="1.8" stroke-linecap="round" stroke-linejoin="round" paint-order="markers stroke fill"/><circle cx="12.738" cy="7.09" r="5.5" fill="none" stroke="#000" stroke-width="1.8" stroke-linecap="round" stroke-linejoin="round" paint-order="markers stroke fill"/><path d="M17.226 25.117a3 3 0 01-.004 0 3 3 0 01-3-3 3 3 0 013-3 3 3 0 01.004 0" fill="none" stroke="#000" stroke-width="1.8" stroke-linecap="round" stroke-linejoin="round" paint-order="markers stroke fill"/><path d="M17.226 19.117s0 0 0 0z" fill="none" stroke="#000"/><path d="M17.226 19.117h7.677" fill="none" stroke="#000" stroke-width="1.8" stroke-linecap="round"/><path d="M24.903 19.117s0 0 0 0z" fill="none" stroke="#000"/><path d="M24.903 19.117l-2.695-3.127m2.695 3.127l-2.695 3.127" fill="none" stroke="#000" stroke-width="1.8" stroke-linecap="round"/></svg>