<svg height="512" width="512"><path d="M467.481 142.221c3.045-10.283 0-17.852-14.644-17.852H404.38c-12.34 0-18.018 6.499-21.061 13.739 0 0-24.68 60.138-59.563 99.133-11.27 11.271-16.453 14.891-22.623 14.891-3.042 0-7.733-3.621-7.733-13.904V142.22c0-12.34-3.456-17.852-13.657-17.852h-76.18c-7.733 0-12.34 5.759-12.34 11.106 0 11.681 17.441 14.396 19.251 47.304v71.41c0 15.631-2.798 18.509-8.967 18.509-16.454 0-56.437-60.384-80.13-129.49-4.771-13.409-9.461-18.839-21.884-18.839H51.037c-13.821 0-16.619 6.499-16.619 13.739 0 12.833 16.454 76.593 76.593 160.836 40.065 57.505 96.502 88.687 147.836 88.687 30.851 0 34.636-6.91 34.636-18.839 0-54.957-2.797-60.141 12.671-60.141 7.156 0 19.497 3.619 48.293 31.344 32.905 32.908 38.335 47.636 56.764 47.636h48.456c13.821 0 20.815-6.91 16.783-20.569-9.214-28.71-71.492-87.78-74.289-91.729-7.157-9.215-5.102-13.329 0-21.557.082-.079 59.233-83.336 65.32-111.554z" fill="none"/></svg>