
<svg x="0px" y="0px" viewBox="0 0 1000 1000" enable-background="new 0 0 1000 1000" xml:space="preserve">
<g><path d="M826.3,100C614.5,18,501.9,179.2,500,181.9c-1.9-2.7-114.5-164-326.3-81.9c-212,82.2-308.7,489.3,287.8,811.1c16.9,9.1,30.4,11.8,38.6,12.1l0,0h0h0l0,0c8.2-0.3,21.6-3,38.6-12.1C1135,589.3,1038.4,182.2,826.3,100z M533.1,834c-14.3,8.1-26,10.1-33.1,10.4c-7-0.2-18.7-2.3-33.1-10.4C-60.5,534.9,43.4,218.5,227.4,163C389.2,114.2,453.4,271.3,499.8,272v0.1c0,0,0.1,0,0.1,0c0,0,0.1,0,0.1,0V272c46.4-0.7,110.6-157.8,272.5-109.1C956.6,218.5,1067.2,530.5,533.1,834z"/></g>
</svg>