<?xml version="1.0" ?><svg data-name="레이어 1" id="레이어_1" viewBox="0 0 36 36" xmlns="http://www.w3.org/2000/svg"><title/><path d="M19.38,28.92H15.19a.75.75,0,0,1-.75-.75v-9H13.1a.75.75,0,0,1-.75-.75V15a.75.75,0,0,1,.75-.75h1.34V13c0-3.4,1.78-5.13,5.29-5.13h2.8a.75.75,0,0,1,.75.75V12a.75.75,0,0,1-.75.75H20.78a1.3,1.3,0,0,0-.62.08,3.56,3.56,0,0,0,0,.52v.93h2.41a.75.75,0,0,1,.75.83l-.37,3.36a.75.75,0,0,1-.75.67h-2v9A.75.75,0,0,1,19.38,28.92Zm-3.44-1.5h2.69v-9a.75.75,0,0,1,.75-.75H21.5l.21-1.86H19.38a.75.75,0,0,1-.75-.75V13.35c0-1.09.26-2.1,2.14-2.1h1V9.39h-2c-2.69,0-3.79,1.05-3.79,3.63v2a.75.75,0,0,1-.75.75H13.85v1.86h1.34a.75.75,0,0,1,.75.75Z"/></svg>