<svg width="26" height="26" viewBox="0 0 26 26">
  <path
    style="fill:none;fill-opacity:1;stroke-width:1.8;stroke-linecap:round;stroke-linejoin:round;stroke-miterlimit:4;stroke-dasharray:none;stroke-opacity:1;paint-order:markers stroke fill"
    d="m 19.167332,15.1794 a 11.5,11.5 0 0 0 -6.717749,-2.166092 v 0 a 11.5,11.5 0 0 0 -11.50000008,11.5 11.5,11.5 0 0 0 0.03125,0.826172 H 11.91638"
    id="path4567">
  </path>
  <circle
    style="fill:none;fill-opacity:1;stroke-width:1.79999995;stroke-linecap:round;stroke-linejoin:round;stroke-miterlimit:4;stroke-dasharray:none;stroke-opacity:1;paint-order:markers stroke fill"
    id="path4544"
    cx="12.737942"
    cy="7.089798"
    r="5.5">
  </circle>
  <path
    style="fill:none;fill-opacity:1;stroke-width:1.79999995;stroke-linecap:round;stroke-linejoin:round;stroke-miterlimit:4;stroke-dasharray:none;stroke-opacity:1;paint-order:markers stroke fill"
    d="m 17.226239,25.116934 a 3,3 0 0 1 -0.0039,3e-6 3,3 0 0 1 -3,-3 3,3 0 0 1 3,-3 3,3 0 0 1 0.0039,2e-6"
    id="path4571">
  </path>
  <path
    style="fill:none;stroke-width:1px;stroke-linecap:butt;stroke-linejoin:miter;stroke-opacity:1"
    d="m 17.226239,19.116939 c 0,0 0,0 0,0 z"
    id="path828">
  </path>
  <path
    style="fill:none;stroke-width:1.8;stroke-linecap:round;stroke-linejoin:miter;stroke-opacity:1;fill-opacity:1;stroke-miterlimit:4;stroke-dasharray:none"
    d="m 17.226239,19.116939 h 7.677178"
    id="path830">
  </path>
  <path
    style="fill:none;stroke-width:1px;stroke-linecap:butt;stroke-linejoin:miter;stroke-opacity:1"
    d="m 24.903417,19.116939 c 0,0 0,0 0,0 z"
    id="path832">
  </path>
  <path
    style="fill:none;stroke-width:1.8;stroke-linecap:round;stroke-linejoin:miter;stroke-opacity:1;stroke-miterlimit:4;stroke-dasharray:none"
    d="M 24.903417,19.116939 22.207572,15.99002"
    id="path834">
  </path>
  <path
    style="fill:none;stroke-width:1.79999995;stroke-linecap:round;stroke-linejoin:miter;stroke-miterlimit:4;stroke-dasharray:none;stroke-opacity:1"
    d="m 24.903417,19.116939 -2.695845,3.126919"
    id="path834-4">
  </path>
</svg>
